<svg width="173" height="27" viewBox="0 0 173 27" fill="none" xmlns="http://www.w3.org/2000/svg">
<path d="M12.622 3.05523V2.53873C12.622 2.36365 12.7632 2.24109 12.9219 2.24109H12.9837C16.9793 2.95018 20.2252 5.77781 21.513 9.50712L21.5307 9.60342C21.5307 9.7785 21.3895 9.90106 21.2308 9.90106H14.4479C14.342 9.88355 14.2626 9.81352 14.2273 9.71722L13.6981 8.43035C12.9484 6.53067 12.6044 4.71854 12.622 3.05523ZM6.32424 13.4728L6.3507 13.3502C6.3507 13.1752 6.20958 13.0526 6.05081 13.0526H0.299894C0.132306 13.0526 0 13.1927 0 13.3502C0.0793838 16.1166 1.19076 18.6203 2.95484 20.5112C3.00776 20.5812 3.08715 20.6163 3.17535 20.6163C3.30766 20.6163 3.4135 20.5375 3.45761 20.4237L6.31542 13.464L6.32424 13.4728ZM16.0796 22.5072L12.6132 14.1206C12.3662 13.4991 11.7664 13.0613 11.052 13.0613C10.3816 13.0613 9.80831 13.4465 9.5437 13.9981L6.02435 22.5072L5.99789 22.6297C5.99789 22.7436 6.05963 22.8486 6.15665 22.8924H6.1743C7.64731 23.6277 9.31437 24.0304 11.0608 24.0304C12.8073 24.0304 14.4743 23.6277 15.9473 22.9011C16.0443 22.8486 16.1149 22.7436 16.1149 22.6385L16.0796 22.5072ZM22.0952 13.359C22.0952 13.1752 21.954 13.0526 21.7953 13.0526H16.0532C15.8768 13.0526 15.7533 13.1927 15.7533 13.3502L15.7797 13.4728L18.6552 20.4237C18.6993 20.5375 18.814 20.6163 18.9374 20.6163C19.0257 20.6163 19.0962 20.5813 19.158 20.5287C20.9044 18.6291 22.0158 16.1253 22.0952 13.3677V13.359ZM0.864401 9.90982H7.61202C7.73551 9.90982 7.83253 9.82227 7.86782 9.71722L8.39704 8.43035C9.12914 6.53067 9.46431 4.7273 9.44667 3.05523V2.53873C9.44667 2.36365 9.30554 2.24109 9.14678 2.24109H9.08504C5.10702 2.94143 1.85229 5.76905 0.573327 9.50712L0.555687 9.61217C0.555687 9.7785 0.696813 9.90982 0.864401 9.90982Z" fill="url(#paint0_linear_892_5670)"/>
<path d="M30.0776 0H28.7546V26.2628H30.0776V0Z" fill="white" fill-opacity="0.1"/>
<path d="M121.545 5.13875C122.454 5.13875 123.133 5.41013 123.618 5.96165H125.391C125.488 5.93538 125.568 5.86535 125.568 5.7603L125.541 5.664C124.809 4.63975 123.239 3.95692 121.625 3.95692C119.12 3.95692 117.109 5.41013 117.109 7.16973C117.109 8.09768 117.585 8.92058 118.476 9.55089C119.314 10.1287 120.496 10.4788 121.66 10.4788C123.248 10.4788 124.791 9.83103 125.55 8.82429L125.576 8.70173C125.576 8.60543 125.497 8.50038 125.4 8.50038H123.68C123.221 8.97311 122.489 9.27951 121.731 9.27951C120.117 9.27951 118.952 8.40408 118.952 7.196C118.899 5.99666 120.011 5.13875 121.554 5.13875H121.545Z" fill="url(#paint1_linear_892_5670)"/>
<path d="M171.531 7.74752C171.178 7.47613 170.525 7.14347 169.608 6.7933C169.529 6.76704 169.405 6.71451 169.176 6.61822C168.188 6.24178 167.712 5.91788 167.712 5.61148C167.712 5.38387 167.888 5.20878 168.214 5.08622C168.541 4.96366 168.973 4.88487 169.502 4.88487C169.961 4.88487 170.384 4.91114 170.737 4.98117C170.993 5.0337 171.213 5.10373 171.443 5.18252H171.495C171.619 5.18252 171.698 5.08622 171.698 4.98117V4.15827L171.672 4.13201C171.293 4.05322 170.887 3.98319 170.508 3.95692C170.102 3.9044 169.696 3.87813 169.29 3.87813C168.056 3.87813 167.015 4.05322 166.23 4.37713C165.445 4.70103 165.039 5.15626 165.039 5.68151C165.039 5.97916 165.215 6.28555 165.542 6.53067C165.868 6.78455 166.556 7.10845 167.562 7.51115C167.641 7.53741 167.738 7.58994 167.861 7.63371C168.876 8.03641 169.379 8.38658 169.379 8.65796C169.379 8.88557 169.202 9.08692 168.823 9.20948C168.444 9.3583 167.967 9.43709 167.385 9.43709C166.979 9.43709 166.574 9.41082 166.194 9.34079C165.895 9.28826 165.586 9.21823 165.286 9.11318H165.233C165.109 9.11318 165.03 9.20948 165.03 9.31453V10.19L165.057 10.2162C165.515 10.295 165.965 10.3388 166.397 10.3913C166.847 10.4438 167.279 10.4701 167.712 10.4701C169.026 10.4701 170.084 10.3213 170.869 9.99736C171.654 9.67345 172.06 9.24449 172.06 8.69297C172.06 8.3428 171.857 8.0189 171.504 7.73876L171.531 7.74752Z" fill="url(#paint2_linear_892_5670)"/>
<path d="M63.8334 4.13201H62.2457L62.2193 4.15827V5.23504L61.9635 4.98117C61.3108 4.30709 60.2964 3.9044 59.1321 3.9044C57.8708 3.9044 56.8123 4.25457 55.9744 4.98117C55.2423 5.61148 54.9159 6.25929 54.9159 7.16098C54.9159 8.01014 55.2952 8.78927 55.9479 9.39331C56.733 10.0674 57.8443 10.4176 59.0792 10.4176C59.9348 10.4176 60.8433 10.1637 61.5048 9.74348H61.5313L61.7606 9.6647C62.0164 9.6647 62.2193 9.86604 62.2369 10.1199V10.1724L62.2634 10.1987H63.851L63.8775 10.1724V4.15827L63.8246 4.13201H63.8334ZM61.6371 8.47412C61.1608 8.97311 60.3758 9.25325 59.4937 9.25325H59.4408C58.5588 9.25325 57.7473 8.9556 57.2445 8.43035C56.9182 8.08018 56.7418 7.67748 56.7418 7.24852C56.7418 6.74953 56.9182 6.29431 57.271 5.94414C57.7738 5.41888 58.5588 5.13875 59.4673 5.13875H59.5467C60.4023 5.13875 61.1873 5.41013 61.6724 5.91788C62.0252 6.26805 62.2016 6.72327 62.2016 7.16973C62.1752 7.66873 61.9988 8.09769 61.6459 8.47412H61.6371Z" fill="url(#paint3_linear_892_5670)"/>
<path d="M88.5394 4.13201H86.9517L86.9253 4.15827V5.23504L86.6695 4.98117C86.0168 4.30709 85.0024 3.9044 83.8381 3.9044C82.5768 3.9044 81.5183 4.25457 80.6804 4.98117C79.9483 5.61148 79.6219 6.25929 79.6219 7.16098C79.6219 8.01014 80.0012 8.78927 80.6539 9.39331C81.439 10.0674 82.5503 10.4176 83.7852 10.4176C84.6143 10.4176 85.5493 10.1637 86.2108 9.74348H86.2373L86.4666 9.6647C86.7224 9.6647 86.9253 9.86604 86.9429 10.1199V10.1724L86.9694 10.1987H88.557L88.5835 10.1724V4.15827L88.5306 4.13201H88.5394ZM86.3167 8.47412C85.8403 8.97311 85.0553 9.25325 84.1733 9.25325H84.1204C83.2383 9.25325 82.4268 8.9556 81.9241 8.43035C81.5977 8.08018 81.4213 7.67748 81.4213 7.24852C81.4213 6.74953 81.5977 6.29431 81.9506 5.94414C82.4533 5.41888 83.2383 5.13875 84.1468 5.13875H84.2262C85.0818 5.13875 85.8668 5.41013 86.3519 5.91788C86.7048 6.26805 86.8812 6.72327 86.8812 7.16973C86.8547 7.66873 86.6783 8.09769 86.3255 8.47412H86.3167Z" fill="url(#paint4_linear_892_5670)"/>
<path d="M53.4077 4.13201H51.6612L51.6348 4.15827V7.11721C51.6348 7.64246 51.6348 9.22698 49.4385 9.22698C48.6534 9.22698 47.9743 8.9556 47.6215 8.50038C47.3216 8.12395 47.2951 7.59869 47.2951 7.0997V4.16703L47.2686 4.14076H45.5222L45.4957 4.16703V7.59869C45.4957 8.44785 45.8221 9.15695 46.3778 9.57715C47.1893 10.1812 48.0448 10.4263 49.1298 10.4263C49.7119 10.4263 50.541 10.33 51.229 9.82227L51.4319 9.76975C51.6612 9.76975 51.8376 9.9711 51.8376 10.1987L51.8641 10.225H53.4077L53.4341 10.1987V4.15827L53.4077 4.13201Z" fill="url(#paint5_linear_892_5670)"/>
<path d="M72.645 4.78858C71.8335 4.18453 70.9779 3.93941 69.893 3.93941C69.3109 3.93941 68.4818 4.03571 67.7938 4.54346L67.5909 4.59598C67.3616 4.59598 67.1852 4.39464 67.1852 4.16703L67.1587 4.14076H65.6151L65.5887 4.16703V10.2337L65.6151 10.26H67.3616L67.388 10.2337V7.24852C67.388 6.72327 67.388 5.13875 69.5843 5.13875C70.3693 5.13875 71.0485 5.41013 71.4013 5.86535C71.7012 6.24178 71.7277 6.76704 71.7277 7.26603V10.225L71.7541 10.2512H73.5006L73.527 10.225V6.76704C73.5006 5.94414 73.2007 5.20878 72.645 4.78858Z" fill="url(#paint6_linear_892_5670)"/>
<path d="M78.8634 4.13201H77.6285V2.03099L77.6021 2.00472H75.8292L75.8027 2.03099V4.13201H74.7972L74.7707 4.15827V5.16501L74.7972 5.19127H75.8027V10.1987L75.8292 10.225H77.6021L77.6285 10.1987V5.19127H78.8634L78.8899 5.16501V4.15827L78.8634 4.13201Z" fill="url(#paint7_linear_892_5670)"/>
<path d="M150.115 4.13201H148.871V2.03099L148.853 2.00472H147.081L147.054 2.03099V4.13201H146.049L146.022 4.15827V5.16501L146.049 5.19127H147.054V10.1987L147.081 10.225H148.853L148.871 10.1987V5.19127H150.115L150.141 5.16501V4.15827L150.115 4.13201Z" fill="url(#paint8_linear_892_5670)"/>
<path d="M43.3524 2.00472C43.2024 2.20607 41.4119 4.41214 41.0767 4.81484C40.9003 5.01619 40.6445 5.11248 40.3975 5.11248C40.0976 5.11248 39.8419 4.98992 39.6654 4.76231C38.6776 3.56298 37.5662 2.15355 37.4427 2.00472H35.5463C35.4493 2.00472 35.3699 2.10102 35.3699 2.20607L35.3964 2.28486L35.4228 2.31112L39.3391 7.17849V10.2075L39.3655 10.2337H41.4383L41.4648 10.2075V7.196L45.3811 2.32863L45.4075 2.30237L45.434 2.20607C45.434 2.10978 45.337 2.00472 45.2311 2.00472H43.3524Z" fill="url(#paint9_linear_892_5670)"/>
<path d="M140.695 3.93066H140.571C139.715 3.93066 139.16 4.15827 138.701 4.68353H138.675V4.15827L138.648 4.13201H136.928L136.902 4.15827V10.225L136.928 10.2512H138.851L138.878 10.225V6.99465C138.851 6.44313 138.904 6.01417 139.486 5.664C139.813 5.48892 140.271 5.39262 140.721 5.36636L140.747 5.34009V3.96568L140.695 3.93941V3.93066Z" fill="url(#paint10_linear_892_5670)"/>
<path d="M144.329 4.13201H142.564L142.538 4.15827V10.225L142.564 10.2512H144.329L144.355 10.225V4.15827L144.329 4.13201Z" fill="url(#paint11_linear_892_5670)"/>
<path d="M153.696 4.13201H151.932L151.905 4.15827V10.225L151.932 10.2512H153.696L153.722 10.225V4.15827L153.696 4.13201Z" fill="url(#paint12_linear_892_5670)"/>
<path d="M135.058 4.13201H133.312L133.285 4.15827V7.11721C133.285 7.64246 133.285 9.22698 131.089 9.22698C130.304 9.22698 129.625 8.9556 129.272 8.50038C128.972 8.12395 128.946 7.59869 128.946 7.0997V4.16703L128.919 4.14076H127.173L127.146 4.16703V7.59869C127.146 8.44785 127.473 9.15695 128.028 9.57715C128.84 10.1812 129.695 10.4263 130.78 10.4263C131.363 10.4263 132.192 10.33 132.88 9.82227L133.083 9.76975C133.312 9.76975 133.488 9.9711 133.488 10.1987L133.515 10.225H135.058L135.085 10.1987V4.15827L135.058 4.13201Z" fill="url(#paint13_linear_892_5670)"/>
<path d="M105.104 6.96839C104.654 6.61822 103.869 6.24178 102.758 5.83909C102.758 5.83909 102.502 5.7603 102.379 5.71653H102.352C100.509 5.06871 99.5473 4.5172 99.5473 4.03571C99.5473 3.7118 99.8031 3.43167 100.279 3.23032C100.756 3.02897 101.417 2.93267 102.22 2.93267C102.679 2.93267 103.155 2.95894 103.631 3.02897C104.037 3.0815 104.443 3.17779 104.84 3.28285H104.892C105.016 3.28285 105.095 3.18655 105.095 3.0815V2.23233L105.069 2.20607C104.54 2.05725 104.01 1.9522 103.428 1.88216C102.873 1.80338 102.29 1.78587 101.708 1.78587C100.341 1.78587 99.2121 2.01348 98.3036 2.41617C97.3686 2.84513 96.91 3.39665 96.91 4.0182C96.91 4.47342 97.1393 4.86737 97.5892 5.21754C98.039 5.56771 98.8505 5.94414 99.9883 6.3731L100.465 6.54818C102.211 7.17849 103.093 7.74751 103.093 8.229C103.093 8.55291 102.864 8.83304 102.414 9.03439C101.964 9.23574 101.329 9.33203 100.544 9.33203C100.094 9.33203 99.609 9.27951 99.1063 9.20948C98.6564 9.13069 98.1713 9.03439 97.6685 8.91183H97.6156L97.4657 8.96436L97.4128 9.11318V9.9886L97.4392 10.0149C97.9949 10.1637 98.5506 10.2862 99.1592 10.3388C99.7149 10.4176 100.271 10.4351 100.8 10.4351C102.264 10.4351 103.472 10.2337 104.407 9.80476C105.342 9.37581 105.819 8.85055 105.819 8.17647C105.792 7.74752 105.536 7.32731 105.087 6.97714L105.104 6.96839Z" fill="url(#paint14_linear_892_5670)"/>
<path d="M111.49 3.86063C108.915 3.86063 106.868 5.31383 106.868 7.16973C106.868 9.02564 108.941 10.4526 111.393 10.4526C113.14 10.4526 114.701 9.75224 115.486 8.62294V8.59668L115.512 8.50038C115.512 8.37782 115.415 8.29903 115.309 8.29903H113.589C113.113 8.82429 112.302 9.1482 111.393 9.1482C109.929 9.1482 108.791 8.27277 108.791 7.16973C108.791 6.61822 109.047 6.14549 109.55 5.76905C109.999 5.39262 110.74 5.16501 111.393 5.16501C112.381 5.16501 113.263 5.56771 113.713 6.18926H110.652C110.529 6.18926 110.449 6.28555 110.449 6.39061V6.44313C110.573 6.96839 111.005 7.34482 111.534 7.34482H115.75L115.9 7.29229L115.953 7.14347C115.927 5.34009 113.933 3.86063 111.481 3.86063H111.49Z" fill="url(#paint15_linear_892_5670)"/>
<path d="M159.685 3.86063C157.109 3.86063 155.063 5.31383 155.063 7.16973C155.063 9.02564 157.136 10.4526 159.588 10.4526C161.334 10.4526 162.896 9.75224 163.681 8.62294V8.59668L163.707 8.50038C163.707 8.37782 163.61 8.29903 163.504 8.29903H161.784C161.308 8.82429 160.496 9.1482 159.588 9.1482C158.124 9.1482 156.986 8.27277 156.986 7.16973C156.986 6.61822 157.242 6.14549 157.744 5.76905C158.203 5.39262 158.935 5.16501 159.588 5.16501C160.576 5.16501 161.458 5.56771 161.908 6.18926H158.856C158.732 6.18926 158.653 6.28555 158.653 6.39061V6.44313C158.776 6.96839 159.209 7.34482 159.738 7.34482H163.954L164.104 7.29229L164.157 7.14347C164.13 5.34009 162.111 3.86063 159.685 3.86063Z" fill="url(#paint16_linear_892_5670)"/>
<path d="M38.8451 23.8203L35.8638 15.5826L35.1582 15.4337V15.2061H38.1042V15.4337L37.1428 15.5826L39.4185 21.7981L40.962 17.7886L40.1682 15.5826L39.198 15.4337V15.2061H42.338V15.4337L41.4295 15.5563L43.7228 21.7893L45.9985 15.9065L44.7989 15.4337V15.2061H47.0746V15.4337L46.2719 15.8977L43.2465 23.8203H43.1583L41.0943 18.1563L38.9333 23.8203H38.8451ZM49.9501 23.7153C49.4296 23.7153 48.9533 23.6015 48.53 23.3651C48.1066 23.1287 47.7714 22.7961 47.5244 22.3671C47.2775 21.9382 47.154 21.4479 47.154 20.8877C47.154 20.3274 47.2775 19.8371 47.5156 19.4169C47.7626 18.988 48.0889 18.6641 48.5035 18.4277C48.9181 18.1913 49.3855 18.0688 49.8883 18.0688C50.3293 18.0688 50.7351 18.1651 51.0879 18.3664C51.4407 18.559 51.7141 18.8392 51.917 19.1893C52.1111 19.5307 52.2169 19.9247 52.2257 20.3799H48.3271V21.4217C48.3271 22.0345 48.4682 22.5422 48.7416 22.9274C49.0239 23.3038 49.4296 23.4964 49.9589 23.4964C50.444 23.4964 50.8762 23.3563 51.2467 23.085C51.6171 22.8136 51.8464 22.4547 51.9346 22.0257H52.1816C52.0846 22.5422 51.8288 22.9537 51.4319 23.2688C51.0261 23.5752 50.541 23.7328 49.9589 23.7328L49.9501 23.7153ZM51.0526 20.1085C51.0526 19.4957 50.9556 19.0493 50.7704 18.7516C50.5763 18.454 50.2852 18.2964 49.8795 18.2964C49.4032 18.2964 49.0415 18.4627 48.7769 18.7866C48.5123 19.1193 48.3712 19.557 48.3359 20.0998H51.0526V20.1085ZM55.304 23.7153C54.8542 23.7153 54.4837 23.6015 54.1927 23.3651C53.9016 23.1287 53.7605 22.7786 53.7605 22.3146C53.7605 21.658 54.0427 21.194 54.5984 20.9139C55.1541 20.6338 55.798 20.4937 56.5389 20.4937H57.2445V19.6883C57.2445 19.3206 57.2004 19.0405 57.1211 18.8479C57.0417 18.6466 56.9182 18.5065 56.7506 18.4277C56.583 18.3402 56.3537 18.3051 56.0626 18.3051C55.7274 18.3051 55.4805 18.3752 55.3217 18.5065C55.1629 18.6291 55.0747 18.8041 55.0747 19.023C55.0747 19.2243 55.1717 19.3557 55.3746 19.4257C55.3746 19.6008 55.304 19.7584 55.1717 19.8897C55.0394 20.021 54.8807 20.091 54.6954 20.091C54.5014 20.091 54.3426 20.0385 54.2191 19.9334C54.0956 19.8196 54.0427 19.6533 54.0427 19.4257C54.0427 19.023 54.2456 18.6903 54.6602 18.4452C55.0659 18.2001 55.5775 18.0775 56.1949 18.0775C57.6062 18.0775 58.3118 18.6903 58.3118 19.9072V22.9099C58.3118 23.0675 58.3471 23.1813 58.4088 23.2688C58.4794 23.3476 58.5764 23.3826 58.7087 23.3826C58.8322 23.3826 58.9204 23.3476 58.991 23.2688C59.0615 23.1813 59.0968 23.0762 59.0968 22.9361H59.3173C59.3173 23.1813 59.238 23.3739 59.0704 23.5139C58.9116 23.654 58.6999 23.724 58.4177 23.724C58.0913 23.724 57.8179 23.6365 57.5885 23.4526C57.368 23.2601 57.2534 22.9712 57.2534 22.5772C57.0858 22.9361 56.8212 23.2163 56.4683 23.4176C56.1243 23.619 55.7362 23.724 55.3129 23.724L55.304 23.7153ZM55.8862 23.2513C56.0802 23.2513 56.2743 23.1988 56.4683 23.085C56.6712 22.9712 56.8476 22.8136 56.9887 22.6035C57.1299 22.3846 57.2181 22.1308 57.2445 21.8244V20.7301H56.5389C55.9568 20.7301 55.5246 20.8614 55.2335 21.1153C54.9512 21.3691 54.8101 21.7281 54.8101 22.1833C54.8101 22.5685 54.8983 22.8398 55.0835 23.0062C55.2688 23.1638 55.5334 23.2513 55.8862 23.2513ZM60.12 23.6102V23.4001L60.9138 23.2951V15.5213L60.12 15.4162V15.2061H61.9723V23.2951L62.7132 23.4001V23.6102H60.12ZM66.0561 23.7153C65.5887 23.7153 65.2182 23.6015 64.936 23.3651C64.6625 23.1375 64.5214 22.7698 64.5214 22.2621V18.4802L63.7717 18.3752V18.1651H64.5214V17.2897L65.5798 17.027V18.1651H66.9558V18.3752L65.5798 18.4802V22.2446C65.5798 22.9887 65.8444 23.3563 66.3825 23.3563C66.4972 23.3563 66.603 23.3388 66.7 23.3038C66.8059 23.2688 66.8853 23.2338 66.947 23.1988L67.0617 23.1287L67.2028 23.2951C66.8853 23.5752 66.506 23.7153 66.0561 23.7153ZM68.1025 23.4001L68.8434 23.2951V15.5213L68.1025 15.4162V15.2061H69.9018V19.3031C70.1665 18.9267 70.4664 18.6291 70.8192 18.4102C71.172 18.1826 71.5513 18.0775 71.9658 18.0775C72.4774 18.0775 72.8743 18.2001 73.1654 18.454C73.4653 18.7078 73.6064 19.0843 73.6064 19.5745V23.2951L74.3473 23.4001V23.6102H71.9129V23.4001L72.548 23.2951V19.6008C72.548 19.2331 72.4774 18.953 72.3275 18.7604C72.1775 18.559 71.9482 18.454 71.6395 18.454C71.3308 18.454 71.0044 18.5765 70.6957 18.8129C70.3958 19.0405 70.1312 19.3294 69.9018 19.6708V23.2951L70.5369 23.4001V23.6102H68.1025V23.4001ZM83.1678 23.7153L80.01 15.5826V22.9712L81.0244 23.3914V23.6102H78.7576V23.3914L79.7543 22.9712V15.5826L78.784 15.4337V15.2061H81.1214L83.7764 21.9469L86.4842 15.2061H88.6188V15.4337L87.6485 15.5826V23.2338L88.6188 23.3914V23.6102H85.5052V23.3914L86.4754 23.2338V15.8977L83.3442 23.7153H83.1501H83.1678ZM91.7148 23.7153C91.2649 23.7153 90.8945 23.6015 90.6034 23.3651C90.3123 23.1287 90.1712 22.7786 90.1712 22.3146C90.1712 21.658 90.4534 21.194 91.0091 20.9139C91.5648 20.6338 92.2087 20.4937 92.9496 20.4937H93.6552V19.6883C93.6552 19.3206 93.6111 19.0405 93.5318 18.8479C93.4524 18.6466 93.3289 18.5065 93.1613 18.4277C92.9937 18.3402 92.7644 18.3051 92.4733 18.3051C92.1381 18.3051 91.8912 18.3752 91.7324 18.5065C91.5736 18.6291 91.4854 18.8041 91.4854 19.023C91.4854 19.2243 91.5824 19.3557 91.7853 19.4257C91.7853 19.6008 91.7147 19.7584 91.5824 19.8897C91.4501 20.021 91.2914 20.091 91.1061 20.091C90.9121 20.091 90.7533 20.0385 90.6298 19.9334C90.5064 19.8196 90.4534 19.6533 90.4534 19.4257C90.4534 19.023 90.6563 18.6903 91.0709 18.4452C91.4766 18.2001 91.9882 18.0775 92.6056 18.0775C94.0169 18.0775 94.7225 18.6903 94.7225 19.9072V22.9099C94.7225 23.0675 94.7578 23.1813 94.8195 23.2688C94.8901 23.3476 94.9871 23.3826 95.1194 23.3826C95.2429 23.3826 95.3311 23.3476 95.4017 23.2688C95.4723 23.1813 95.5075 23.0762 95.5075 22.9361H95.728C95.728 23.1813 95.6487 23.3739 95.4811 23.5139C95.3223 23.654 95.1106 23.724 94.8284 23.724C94.502 23.724 94.2286 23.6365 93.9992 23.4526C93.7787 23.2601 93.6641 22.9712 93.6641 22.5772C93.4965 22.9361 93.2319 23.2163 92.879 23.4176C92.535 23.619 92.147 23.724 91.7236 23.724L91.7148 23.7153ZM92.2969 23.2513C92.4909 23.2513 92.685 23.1988 92.879 23.085C93.0819 22.9712 93.2583 22.8136 93.3994 22.6035C93.5406 22.3846 93.6288 22.1308 93.6552 21.8244V20.7301H92.9496C92.3675 20.7301 91.9353 20.8614 91.6442 21.1153C91.3619 21.3691 91.2208 21.7281 91.2208 22.1833C91.2208 22.5685 91.309 22.8398 91.4942 23.0062C91.6795 23.1725 91.9441 23.2513 92.2969 23.2513ZM96.6101 23.4001L97.351 23.2951V18.4802L96.6101 18.3752V18.1651H98.4094V19.3031C98.6741 18.9267 98.974 18.6291 99.3268 18.4102C99.6796 18.1826 100.059 18.0775 100.473 18.0775C100.985 18.0775 101.382 18.2001 101.673 18.454C101.973 18.7078 102.114 19.0843 102.114 19.5745V23.2951L102.855 23.4001V23.6102H100.421V23.4001L101.056 23.2951V19.6008C101.056 19.2331 100.985 18.953 100.835 18.7604C100.685 18.559 100.456 18.454 100.147 18.454C99.8384 18.454 99.512 18.5765 99.2033 18.8129C98.9034 19.0405 98.6388 19.3294 98.4094 19.6708V23.2951L99.0445 23.4001V23.6102H96.6101V23.4001ZM105.713 23.7153C105.263 23.7153 104.892 23.6015 104.601 23.3651C104.31 23.1287 104.169 22.7786 104.169 22.3146C104.169 21.658 104.451 21.194 105.007 20.9139C105.563 20.6338 106.207 20.4937 106.948 20.4937H107.653V19.6883C107.653 19.3206 107.609 19.0405 107.53 18.8479C107.45 18.6466 107.327 18.5065 107.159 18.4277C106.992 18.3402 106.762 18.3051 106.471 18.3051C106.136 18.3051 105.889 18.3752 105.73 18.5065C105.572 18.6291 105.483 18.8041 105.483 19.023C105.483 19.2243 105.58 19.3557 105.783 19.4257C105.783 19.6008 105.713 19.7584 105.58 19.8897C105.448 20.021 105.289 20.091 105.104 20.091C104.91 20.091 104.751 20.0385 104.628 19.9334C104.504 19.8196 104.451 19.6533 104.451 19.4257C104.451 19.023 104.654 18.6903 105.069 18.4452C105.475 18.2001 105.986 18.0775 106.604 18.0775C108.015 18.0775 108.721 18.6903 108.721 19.9072V22.9099C108.721 23.0675 108.756 23.1813 108.818 23.2688C108.888 23.3476 108.985 23.3826 109.117 23.3826C109.241 23.3826 109.329 23.3476 109.4 23.2688C109.47 23.1813 109.506 23.0762 109.506 22.9361H109.726C109.726 23.1813 109.647 23.3739 109.479 23.5139C109.32 23.654 109.109 23.724 108.826 23.724C108.5 23.724 108.227 23.6365 107.997 23.4526C107.777 23.2601 107.662 22.9712 107.662 22.5772C107.494 22.9361 107.23 23.2163 106.877 23.4176C106.533 23.619 106.145 23.724 105.722 23.724L105.713 23.7153ZM106.295 23.2513C106.489 23.2513 106.683 23.1988 106.877 23.085C107.08 22.9712 107.256 22.8136 107.397 22.6035C107.539 22.3846 107.627 22.1308 107.653 21.8244V20.7301H106.948C106.365 20.7301 105.933 20.8614 105.642 21.1153C105.36 21.3691 105.219 21.7281 105.219 22.1833C105.219 22.5685 105.307 22.8398 105.492 23.0062C105.677 23.1725 105.942 23.2513 106.295 23.2513ZM116.033 17.6748C116.033 17.9462 115.927 18.1826 115.724 18.3752C115.521 18.5678 115.195 18.6991 114.754 18.7516C114.939 19.0142 115.027 19.3819 115.027 19.8459C115.027 20.3887 114.833 20.8264 114.436 21.1415C114.048 21.4567 113.554 21.6143 112.954 21.6143C112.707 21.6143 112.478 21.5967 112.275 21.553C111.825 21.5792 111.596 21.7543 111.596 22.0782C111.596 22.2621 111.667 22.3934 111.816 22.4809C111.975 22.5685 112.213 22.6035 112.549 22.6035H113.731C114.304 22.6035 114.727 22.7173 115.001 22.9537C115.283 23.1813 115.424 23.584 115.424 24.1442C115.424 24.5382 115.318 24.8971 115.115 25.2298C114.921 25.5624 114.63 25.8163 114.251 26.0089C113.872 26.2015 113.413 26.3065 112.884 26.3065C112.09 26.3065 111.499 26.184 111.12 25.9476C110.749 25.7112 110.555 25.3961 110.555 25.0021C110.555 24.7658 110.643 24.5557 110.829 24.3718C111.014 24.188 111.261 24.1005 111.578 24.1005C111.64 24.1005 111.772 24.118 111.966 24.1442C111.746 24.3718 111.64 24.652 111.64 24.9671C111.64 25.2823 111.746 25.5274 111.958 25.755C112.169 25.9826 112.513 26.0877 112.998 26.0877C113.413 26.0877 113.783 26.0089 114.11 25.8426C114.445 25.685 114.692 25.4836 114.868 25.2298C115.045 24.9759 115.133 24.722 115.133 24.4506C115.133 24.153 115.036 23.9429 114.851 23.8116C114.657 23.689 114.321 23.619 113.836 23.619H112.549C112.055 23.619 111.684 23.5227 111.428 23.3388C111.181 23.1462 111.058 22.8574 111.058 22.4809C111.058 22.2271 111.129 22.0082 111.27 21.8156C111.42 21.623 111.605 21.4917 111.834 21.4392C111.217 21.1765 110.917 20.6513 110.917 19.8634C110.917 19.3119 111.111 18.8742 111.499 18.559C111.887 18.2439 112.372 18.0863 112.963 18.0863C113.704 18.0863 114.242 18.2439 114.568 18.5503C114.763 18.5152 114.912 18.454 115.009 18.3577C115.107 18.2614 115.159 18.1476 115.159 18.0338C115.159 17.92 115.124 17.8412 115.062 17.7799C115.001 17.7186 114.921 17.6836 114.842 17.6836C114.842 17.526 114.895 17.3947 115.009 17.2809C115.133 17.1583 115.274 17.1058 115.433 17.1058C115.609 17.1058 115.75 17.1583 115.865 17.2634C115.98 17.3684 116.033 17.5085 116.033 17.6836V17.6748ZM114.03 19.5833C114.03 19.1543 113.942 18.8304 113.757 18.594C113.581 18.3664 113.316 18.2439 112.954 18.2439C112.258 18.2439 111.905 18.6903 111.905 19.5745V20.091C111.905 20.5025 111.993 20.8264 112.16 21.0715C112.337 21.3079 112.602 21.4304 112.954 21.4304C113.307 21.4304 113.581 21.3079 113.757 21.0715C113.942 20.8351 114.03 20.5112 114.03 20.091V19.5745V19.5833ZM119.764 23.7153C119.243 23.7153 118.767 23.6015 118.344 23.3651C117.92 23.1287 117.585 22.7961 117.338 22.3671C117.091 21.9382 116.968 21.4479 116.968 20.8877C116.968 20.3274 117.091 19.8371 117.329 19.4169C117.576 18.988 117.903 18.6641 118.317 18.4277C118.732 18.1913 119.199 18.0688 119.702 18.0688C120.143 18.0688 120.549 18.1651 120.902 18.3664C121.254 18.559 121.528 18.8392 121.731 19.1893C121.925 19.5307 122.031 19.9247 122.039 20.3799H118.141V21.4217C118.141 22.0345 118.282 22.5422 118.555 22.9274C118.838 23.3038 119.243 23.4964 119.773 23.4964C120.258 23.4964 120.69 23.3563 121.06 23.085C121.431 22.8136 121.66 22.4547 121.748 22.0257H121.995C121.898 22.5422 121.642 22.9537 121.246 23.2688C120.84 23.5752 120.355 23.7328 119.773 23.7328L119.764 23.7153ZM120.866 20.1085C120.866 19.4957 120.769 19.0493 120.584 18.7516C120.39 18.454 120.099 18.2964 119.693 18.2964C119.217 18.2964 118.855 18.4627 118.591 18.7866C118.326 19.1193 118.185 19.557 118.15 20.0998H120.866V20.1085ZM123.371 23.4001L124.112 23.2951V18.4802L123.371 18.3752V18.1651H125.171V19.128C125.426 18.7954 125.709 18.5415 126.026 18.3489C126.353 18.1563 126.697 18.0688 127.076 18.0688C127.508 18.0688 127.852 18.1651 128.125 18.3489C128.399 18.5328 128.575 18.8041 128.646 19.1806C128.902 18.8392 129.193 18.5678 129.51 18.3752C129.837 18.1738 130.189 18.0688 130.578 18.0688C131.08 18.0688 131.468 18.1913 131.742 18.4452C132.024 18.6903 132.165 19.0668 132.165 19.5658V23.2863L132.906 23.3914V23.6015H130.472V23.3914L131.107 23.2863V19.592C131.107 19.2243 131.036 18.9355 130.904 18.7429C130.772 18.5503 130.551 18.4452 130.251 18.4452C129.951 18.4452 129.678 18.5415 129.404 18.7429C129.14 18.9355 128.893 19.1893 128.672 19.4957V23.2863L129.307 23.3914V23.6015H126.97V23.3914L127.605 23.2863V19.592C127.605 19.2243 127.534 18.9355 127.402 18.7429C127.27 18.5503 127.049 18.4452 126.749 18.4452C126.45 18.4452 126.176 18.5415 125.903 18.7429C125.638 18.9355 125.391 19.1893 125.171 19.4957V23.2863L125.806 23.3914V23.6015H123.371V23.3914V23.4001ZM136.981 23.7153C136.461 23.7153 135.984 23.6015 135.561 23.3651C135.138 23.1287 134.803 22.7961 134.556 22.3671C134.309 21.9382 134.185 21.4479 134.185 20.8877C134.185 20.3274 134.309 19.8371 134.547 19.4169C134.794 18.988 135.12 18.6641 135.535 18.4277C135.949 18.1913 136.417 18.0688 136.919 18.0688C137.36 18.0688 137.766 18.1651 138.119 18.3664C138.472 18.559 138.745 18.8392 138.948 19.1893C139.142 19.5307 139.248 19.9247 139.257 20.3799H135.358V21.4217C135.358 22.0345 135.499 22.5422 135.773 22.9274C136.055 23.3038 136.461 23.4964 136.99 23.4964C137.475 23.4964 137.907 23.3563 138.278 23.085C138.648 22.8136 138.878 22.4547 138.966 22.0257H139.213C139.116 22.5422 138.86 22.9537 138.463 23.2688C138.057 23.5752 137.572 23.7328 136.99 23.7328L136.981 23.7153ZM138.084 20.1085C138.084 19.4957 137.987 19.0493 137.801 18.7516C137.607 18.454 137.316 18.2964 136.911 18.2964C136.434 18.2964 136.073 18.4627 135.808 18.7866C135.543 19.1193 135.402 19.557 135.367 20.0998H138.084V20.1085ZM140.589 23.4001L141.33 23.2951V18.4802L140.589 18.3752V18.1651H142.388V19.3031C142.653 18.9267 142.953 18.6291 143.305 18.4102C143.658 18.1826 144.037 18.0775 144.452 18.0775C144.964 18.0775 145.361 18.2001 145.652 18.454C145.952 18.7078 146.093 19.0843 146.093 19.5745V23.2951L146.834 23.4001V23.6102H144.399V23.4001L145.034 23.2951V19.6008C145.034 19.2331 144.964 18.953 144.814 18.7604C144.664 18.559 144.434 18.454 144.126 18.454C143.817 18.454 143.491 18.5765 143.182 18.8129C142.882 19.0405 142.617 19.3294 142.388 19.6708V23.2951L143.023 23.4001V23.6102H140.589V23.4001ZM150.132 23.7153C149.665 23.7153 149.294 23.6015 149.012 23.3651C148.739 23.1375 148.598 22.7698 148.598 22.2621V18.4802L147.848 18.3752V18.1651H148.598V17.2897L149.656 17.027V18.1651H151.032V18.3752L149.656 18.4802V22.2446C149.656 22.9887 149.921 23.3563 150.459 23.3563C150.573 23.3563 150.679 23.3388 150.776 23.3038C150.882 23.2688 150.962 23.2338 151.023 23.1988L151.138 23.1287L151.279 23.2951C150.962 23.5752 150.582 23.7153 150.132 23.7153Z" fill="url(#paint17_linear_892_5670)"/>
<path d="M38.8451 23.8203L38.9245 23.7941L35.9256 15.5125L35.2376 15.3725V15.3024H38.0072V15.3725L37.1163 15.5038L37.0105 15.5213L39.4008 22.0607L41.0414 17.7974L40.2211 15.5125L39.2685 15.3725V15.3024H42.2322V15.3725L41.3942 15.4863L41.2884 15.5038L43.7052 22.052L46.0955 15.8715L44.8783 15.39V15.3024H46.9776V15.3987L46.1926 15.854L43.176 23.7503H43.1495V23.8378L43.2289 23.8116L41.0855 17.9287L38.8628 23.759H38.8363V23.9341H38.9863L41.0855 18.4365L43.0878 23.9341H43.2995L46.3337 15.9853L47.154 15.5125V15.1449H44.7019V15.5213L45.875 15.9853L43.714 21.5705L41.5354 15.6614L42.338 15.5476H42.4174V15.1449H39.1009V15.5388L40.0976 15.6876L40.865 17.8149L39.4185 21.5792L37.2575 15.6789L38.113 15.5476H38.1836V15.1449H35.0612V15.5388L35.7933 15.6876L38.7834 23.9341H38.8451V23.8203ZM49.9501 23.7153V23.6277C49.4385 23.6277 48.9798 23.5139 48.5741 23.2951C48.1683 23.0675 47.842 22.7436 47.6038 22.3321C47.3657 21.9207 47.2422 21.4392 47.2422 20.8964C47.2422 20.3449 47.3568 19.8722 47.595 19.4695C47.8331 19.058 48.1507 18.7341 48.5476 18.5152C48.9533 18.2876 49.3944 18.1738 49.8883 18.1738C50.3205 18.1738 50.6998 18.2701 51.0438 18.454C51.379 18.6466 51.6436 18.9004 51.8376 19.2419C52.0229 19.5745 52.1287 19.9509 52.1287 20.3887H52.2169V20.3011H48.2301V21.4304C48.2301 22.0607 48.3712 22.5772 48.6623 22.9799C48.9622 23.3826 49.4032 23.584 49.9501 23.584C50.4528 23.584 50.9027 23.4439 51.2908 23.155C51.6789 22.8749 51.9258 22.4984 52.014 22.0432L51.9258 22.0257V22.1132H52.1728V22.0257L52.0846 22.0082C51.9876 22.5072 51.7494 22.9011 51.3701 23.1988C50.982 23.4964 50.5146 23.6452 49.9501 23.6452V23.8203C50.541 23.8203 51.0526 23.6627 51.476 23.3388C51.8905 23.0149 52.1552 22.586 52.261 22.0432L52.2786 21.9382H51.8553L51.8376 22.0082C51.7582 22.4196 51.5465 22.7523 51.1849 23.0149C50.8233 23.2776 50.4175 23.4089 49.9501 23.4089C49.4385 23.4089 49.068 23.2338 48.8034 22.8749C48.5388 22.5072 48.4065 22.0257 48.4065 21.4217V20.4674H52.3051V20.3799C52.3051 19.9159 52.1904 19.5045 51.9876 19.1543C51.7847 18.7954 51.4936 18.5065 51.132 18.3051C50.7615 18.1038 50.347 17.9987 49.8971 17.9987C49.3767 17.9987 48.9004 18.1213 48.4682 18.3664C48.0448 18.6028 47.7008 18.9442 47.4539 19.3819C47.2069 19.8196 47.0834 20.3274 47.0834 20.8964C47.0834 21.4654 47.2069 21.9819 47.4627 22.4196C47.7185 22.8574 48.0625 23.2075 48.5035 23.4526C48.9445 23.689 49.4296 23.8116 49.9677 23.8116V23.724L49.9501 23.7153ZM51.0526 20.1085H51.1408C51.1408 19.487 51.0438 19.023 50.8409 18.7078C50.638 18.3839 50.3029 18.2088 49.8795 18.2176C49.3855 18.2176 48.9886 18.3927 48.7064 18.7429C48.4329 19.093 48.283 19.5482 48.2389 20.1085V20.2048H51.132V20.1173H51.0438V20.0297H48.3271V20.1173H48.4153C48.4506 19.592 48.5917 19.1718 48.8387 18.8567C49.0857 18.5503 49.4208 18.4014 49.8707 18.3927C50.2499 18.3927 50.5057 18.524 50.6821 18.8041C50.8586 19.0755 50.9556 19.5132 50.9556 20.1085H51.0526ZM55.304 23.7153V23.6277C54.863 23.6277 54.519 23.5139 54.2456 23.3038C53.981 23.085 53.8487 22.7698 53.8399 22.3233C53.8399 21.693 54.0956 21.2641 54.6249 21.0015C55.1717 20.7301 55.798 20.59 56.5213 20.59H57.3151V19.6971C57.3151 19.3294 57.271 19.0405 57.1828 18.8216C57.1034 18.6028 56.9623 18.4365 56.7682 18.3489C56.583 18.2526 56.336 18.2176 56.045 18.2176C55.701 18.2176 55.4364 18.2876 55.2511 18.4365C55.0659 18.5765 54.9689 18.7779 54.9777 19.023C54.9777 19.2594 55.11 19.4432 55.3393 19.5045L55.3658 19.4169H55.2776C55.2776 19.5658 55.2247 19.6971 55.1012 19.8196C54.9777 19.9422 54.8454 19.9947 54.6866 19.9947C54.5014 19.9947 54.3691 19.9509 54.2721 19.8634C54.175 19.7759 54.1221 19.6358 54.1221 19.4257C54.1221 19.0493 54.2985 18.7604 54.6954 18.524C55.0835 18.2876 55.5863 18.1651 56.1861 18.1651C56.8829 18.1651 57.3857 18.3139 57.712 18.6028C58.0384 18.8917 58.206 19.3119 58.2148 19.9072V22.9099C58.2148 23.0762 58.2501 23.2163 58.3294 23.3213C58.4177 23.4176 58.55 23.4702 58.6911 23.4614C58.8322 23.4614 58.9557 23.4176 59.0439 23.3213C59.1321 23.2163 59.1674 23.085 59.1674 22.9274H59.0792V23.0149H59.2997V22.9274H59.2115C59.2115 23.155 59.1409 23.3126 58.9998 23.4351C58.8675 23.5577 58.6734 23.619 58.4 23.619C58.0913 23.619 57.8355 23.5314 57.6326 23.3651L57.5797 23.4351L57.6415 23.3651C57.4474 23.1988 57.3416 22.9361 57.3327 22.5597V22.1833L57.1652 22.5247C57.0064 22.8661 56.7594 23.1287 56.4154 23.3301C56.0802 23.5227 55.7186 23.619 55.304 23.619V23.7941C55.7451 23.7941 56.142 23.689 56.5036 23.4789C56.8741 23.2688 57.1475 22.9712 57.3239 22.6035L57.2445 22.5685H57.1563C57.1563 22.9799 57.2798 23.2951 57.5268 23.5052C57.7649 23.6978 58.0648 23.7941 58.4088 23.7941C58.7087 23.7941 58.9469 23.724 59.1233 23.5577L59.0615 23.4964L59.1233 23.5665C59.3085 23.4089 59.3967 23.19 59.3967 22.9186V22.8311H58.9998V22.9186C58.9998 23.0412 58.9645 23.1375 58.9116 23.1988L58.9822 23.2513L58.9204 23.19C58.8675 23.2513 58.8058 23.2776 58.6999 23.2776C58.5941 23.2776 58.5235 23.2513 58.4706 23.19L58.4088 23.2513L58.4794 23.1988C58.4353 23.1375 58.4 23.0412 58.4 22.8924V19.8897C58.4 19.2681 58.2148 18.7779 57.8443 18.454C57.4651 18.1301 56.9182 17.9725 56.1949 17.9725C55.5687 17.9725 55.0394 18.095 54.6161 18.3489C54.1839 18.6028 53.9545 18.9617 53.9633 19.3994C53.9633 19.6358 54.0251 19.8371 54.175 19.9685C54.3162 20.091 54.4926 20.1523 54.7131 20.1523C54.9159 20.1523 55.1012 20.0735 55.2511 19.9247C55.4011 19.7759 55.4805 19.6008 55.4805 19.3994V19.3381L55.4187 19.3206C55.2511 19.2594 55.1894 19.1806 55.1806 19.0055C55.1806 18.8129 55.2511 18.6728 55.3923 18.559C55.5334 18.4452 55.7539 18.3752 56.0802 18.3752C56.3625 18.3752 56.5742 18.419 56.733 18.489C56.8829 18.559 56.9887 18.6728 57.0593 18.8567C57.1387 19.0318 57.1828 19.3031 57.1828 19.6621V20.3799H56.5654C55.8244 20.3799 55.1629 20.52 54.5896 20.8089L54.6337 20.8877L54.5984 20.8089C54.0163 21.089 53.7075 21.6055 53.7164 22.2883C53.7164 22.7698 53.8663 23.1462 54.1839 23.4089C54.4926 23.654 54.8807 23.7766 55.3481 23.7766V23.689L55.304 23.7153ZM55.8862 23.2513V23.3388C56.0979 23.3388 56.3008 23.2776 56.5124 23.155C56.733 23.0324 56.9182 22.8661 57.0593 22.6473C57.2093 22.4196 57.2975 22.1395 57.3239 21.8331V20.6425H56.5301C55.9391 20.6425 55.4805 20.7738 55.1717 21.054C54.8718 21.3254 54.7219 21.7106 54.7219 22.192C54.7219 22.586 54.8189 22.8924 55.0306 23.0762C55.2335 23.2601 55.5246 23.3388 55.895 23.3388V23.1638C55.551 23.1638 55.3129 23.085 55.1453 22.9449C54.9865 22.8048 54.8983 22.5685 54.8983 22.192C54.8983 21.7456 55.0306 21.4217 55.2952 21.1853C55.5598 20.9489 55.9744 20.8176 56.5389 20.8176H57.1563V21.8244C57.1299 22.1045 57.0505 22.3496 56.9182 22.551L56.9887 22.5947L56.9182 22.5422C56.7859 22.7436 56.6183 22.8924 56.4331 22.9974C56.2478 23.1025 56.0714 23.155 55.895 23.155V23.2425L55.8862 23.2513ZM60.12 23.6102H60.2082V23.4789L60.9227 23.3826H61.002V15.4425L60.2082 15.3375V15.2937H61.8841V23.3739L62.625 23.4789V23.5227H60.12V23.6102V23.6978H62.8014V23.3213L62.0605 23.2163V15.1186H60.0318V15.495L60.8256 15.6001V23.2163L60.1112 23.3126H60.0318V23.6978H60.12V23.6102ZM66.0561 23.7153V23.6277C65.6063 23.6277 65.2535 23.5139 64.9889 23.3038C64.7419 23.0937 64.6096 22.7611 64.6096 22.2708V18.4102L63.8599 18.3051V18.2614H64.6096V17.3684L65.4916 17.1496V18.2614H66.8676V18.3051L65.4916 18.4102V22.2533C65.4916 22.6385 65.5622 22.9274 65.7121 23.1375C65.8621 23.3476 66.1002 23.4526 66.3913 23.4526C66.5148 23.4526 66.6295 23.4351 66.7353 23.3914C66.8412 23.3563 66.9294 23.3213 66.9999 23.2776L67.0528 23.2425L67.1411 23.3476L67.2116 23.2951L67.1499 23.2338C66.85 23.4964 66.4883 23.6277 66.065 23.6277V23.8028C66.5324 23.8028 66.9382 23.654 67.2645 23.3563L67.3263 23.3038L67.1322 23.0675L67.0793 23.0062L66.8941 23.12C66.85 23.1462 66.7706 23.1813 66.6736 23.2163C66.5854 23.2513 66.4883 23.2601 66.3825 23.2601C66.1355 23.2601 65.9679 23.1813 65.8533 23.0149C65.7386 22.8486 65.668 22.5947 65.668 22.227V18.5503L67.044 18.4452V18.0688H65.668V16.9045L64.4332 17.2109V18.06H63.6834V18.4365L64.4332 18.5415V22.2446C64.4332 22.7611 64.5743 23.1638 64.8742 23.4176C65.1741 23.6627 65.571 23.7853 66.0561 23.7853V23.6978V23.7153ZM68.1025 23.4001V23.4877L68.8522 23.3826H68.9316V15.4425L68.1907 15.3375V15.2937H69.8136V19.5833L69.9724 19.3469C70.2282 18.9792 70.5281 18.6903 70.8633 18.4802C71.2073 18.2614 71.5689 18.1563 71.957 18.1563C72.451 18.1563 72.8214 18.2789 73.0948 18.5152C73.3683 18.7516 73.5094 19.093 73.5094 19.5745V23.3651L74.2503 23.4702V23.5139H71.9923V23.4614L72.5568 23.3651H72.6273V19.5833C72.6273 19.2068 72.548 18.9092 72.3892 18.6903C72.2216 18.4627 71.957 18.3489 71.6306 18.3489C71.2866 18.3489 70.9515 18.4802 70.6339 18.7253C70.334 18.9617 70.0606 19.2594 69.8225 19.6095L69.8048 19.6358V23.3651L70.4399 23.4702V23.5227H68.1819V23.4001H68.0055V23.6978H70.6163V23.3301L69.9812 23.225V19.6708H69.893L69.9636 19.7233C70.1929 19.3907 70.4487 19.1105 70.7398 18.8829C71.0309 18.6553 71.3219 18.5415 71.6306 18.5415C71.9217 18.5415 72.1158 18.6291 72.2481 18.8129C72.3804 18.988 72.451 19.2506 72.451 19.6008V23.225L71.8864 23.3213H71.8159V23.7065H74.4267V23.3301L73.6858 23.225V19.5833C73.6858 19.0668 73.527 18.6641 73.2095 18.3927C72.9008 18.1213 72.4774 17.99 71.957 17.99C71.5336 17.99 71.1279 18.1038 70.7663 18.3402C70.4046 18.5678 70.0871 18.8742 69.8225 19.2594L69.893 19.3119H69.9812V15.1274H68.0055V15.5038L68.7464 15.6088V23.2338L68.0848 23.3301H68.0055V23.4176H68.0937L68.1025 23.4001ZM83.1678 23.7153L83.2471 23.6803L79.9219 15.1098V23.0237L80.9362 23.4439V23.5227H78.8457V23.4439L79.8425 23.0237V15.5038L78.8722 15.355V15.2849H81.0597L83.7764 22.1833L86.546 15.2849H88.5394V15.355L87.6397 15.495H87.5691V23.3038L88.5394 23.4614V23.5227H85.6022V23.4614L86.5019 23.3126H86.5724V15.4337L83.2912 23.619H83.1589V23.7941H83.4059L86.3872 16.3442V23.1462L85.4875 23.2951H85.417V23.689H88.707V23.3038L87.7367 23.1462V15.6439L88.6364 15.5038H88.707V15.1011H86.4225L83.7764 21.693L81.1832 15.1011H78.6958V15.495L79.6661 15.6439V22.8924L78.6693 23.3126V23.6803H81.1126V23.3126L80.0983 22.8924V16.0378L83.106 23.7853H83.1678V23.6978V23.7153ZM91.7148 23.7153V23.6277C91.2737 23.6277 90.9297 23.5139 90.6563 23.3038C90.3917 23.085 90.2594 22.7698 90.2506 22.3233C90.2506 21.693 90.5064 21.2641 91.0356 21.0015C91.5824 20.7301 92.2087 20.59 92.932 20.59H93.7258V19.6971C93.7258 19.3294 93.6817 19.0405 93.5935 18.8216C93.5141 18.6028 93.373 18.4365 93.1789 18.3489C92.9937 18.2526 92.7467 18.2176 92.4557 18.2176C92.1117 18.2176 91.8471 18.2876 91.6618 18.4365C91.4766 18.5765 91.3796 18.7779 91.3884 19.023C91.3884 19.2594 91.5207 19.4432 91.75 19.5045L91.7765 19.4169H91.6883C91.6883 19.5658 91.6354 19.6971 91.5119 19.8196C91.3884 19.9422 91.2561 19.9947 91.0973 19.9947C90.9121 19.9947 90.7798 19.9509 90.6828 19.8634C90.5857 19.7759 90.5328 19.6358 90.5328 19.4257C90.5328 19.0493 90.7092 18.7604 91.1061 18.524C91.4942 18.2876 91.997 18.1651 92.5968 18.1651C93.2936 18.1651 93.7964 18.3139 94.1227 18.6028C94.4491 18.8917 94.6167 19.3119 94.6255 19.9072V22.9099C94.6255 23.0762 94.6608 23.2163 94.7402 23.3213C94.8284 23.4176 94.9607 23.4702 95.1018 23.4614C95.2429 23.4614 95.3664 23.4176 95.4546 23.3213C95.5428 23.2163 95.5781 23.085 95.5781 22.9274H95.4899V23.0149H95.7104V22.9274H95.6222C95.6222 23.155 95.5516 23.3126 95.4105 23.4351C95.2782 23.5577 95.0841 23.619 94.8107 23.619C94.502 23.619 94.2462 23.5314 94.0433 23.3651L93.9904 23.4351L94.0522 23.3651C93.8581 23.1988 93.7523 22.9361 93.7434 22.5597V22.1833L93.5759 22.5247C93.4171 22.8661 93.1701 23.1287 92.8261 23.3301C92.491 23.5227 92.1293 23.619 91.7148 23.619V23.7941C92.1558 23.7941 92.5527 23.689 92.9143 23.4789C93.2848 23.2688 93.5582 22.9712 93.7346 22.6035L93.6552 22.5685H93.567C93.567 22.9799 93.6905 23.2951 93.9375 23.5052C94.1757 23.6978 94.4755 23.7941 94.8195 23.7941C95.1194 23.7941 95.3576 23.724 95.534 23.5577L95.4723 23.4964L95.534 23.5665C95.7192 23.4089 95.8074 23.19 95.8074 22.9186V22.8311H95.4105V22.9186C95.4105 23.0412 95.3752 23.1375 95.3223 23.1988L95.3929 23.2513L95.3311 23.19C95.2782 23.2513 95.2165 23.2776 95.1106 23.2776C95.0048 23.2776 94.9342 23.2513 94.8813 23.19L94.8195 23.2513L94.8901 23.1988C94.846 23.1375 94.8107 23.0412 94.8107 22.8924V19.8897C94.8107 19.2681 94.6255 18.7779 94.255 18.454C93.8758 18.1301 93.3289 17.9725 92.6056 17.9725C91.9794 17.9725 91.4501 18.095 91.0268 18.3489C90.5946 18.6028 90.3652 18.9617 90.374 19.3994C90.374 19.6358 90.4358 19.8371 90.5857 19.9685C90.7269 20.091 90.9033 20.1523 91.1238 20.1523C91.3266 20.1523 91.5119 20.0735 91.6618 19.9247C91.8118 19.7759 91.8912 19.6008 91.8912 19.3994V19.3381L91.8294 19.3206C91.6618 19.2594 91.6001 19.1806 91.5913 19.0055C91.5913 18.8129 91.6618 18.6728 91.803 18.559C91.9441 18.4452 92.1646 18.3752 92.4909 18.3752C92.7732 18.3752 92.9849 18.419 93.1437 18.489C93.2936 18.559 93.3995 18.6728 93.47 18.8567C93.5494 19.0318 93.5935 19.3031 93.5935 19.6621V20.3799H92.9761C92.2352 20.3799 91.5736 20.52 91.0003 20.8089L91.0444 20.8877L91.0091 20.8089C90.427 21.089 90.1183 21.6055 90.1271 22.2883C90.1271 22.7698 90.277 23.1462 90.5946 23.4089C90.9033 23.654 91.2914 23.7766 91.7589 23.7766V23.689L91.7148 23.7153ZM92.2969 23.2513V23.3388C92.5086 23.3388 92.7115 23.2776 92.9231 23.155C93.1437 23.0324 93.3289 22.8661 93.47 22.6473C93.62 22.4196 93.7082 22.1395 93.7346 21.8331V20.6425H92.9408C92.3498 20.6425 91.8912 20.7738 91.5824 21.054C91.2825 21.3254 91.1326 21.7106 91.1326 22.192C91.1326 22.586 91.2296 22.8924 91.4413 23.0762C91.6442 23.2601 91.9353 23.3388 92.3057 23.3388V23.1638C91.9617 23.1638 91.7236 23.085 91.556 22.9449C91.3972 22.8048 91.309 22.5685 91.309 22.192C91.309 21.7456 91.4413 21.4217 91.7059 21.1853C91.9705 20.9489 92.3851 20.8176 92.9496 20.8176H93.567V21.8244C93.5406 22.1045 93.4612 22.3496 93.3289 22.551L93.3994 22.5947L93.3289 22.5422C93.1966 22.7436 93.029 22.8924 92.8438 22.9974C92.6585 23.1025 92.4821 23.155 92.3057 23.155V23.2425L92.2969 23.2513ZM96.6101 23.4001V23.4877L97.3598 23.3826H97.4392V18.4102L96.6983 18.3051V18.2614H98.3212V19.592L98.48 19.3557C98.7358 18.988 99.0357 18.6991 99.3709 18.489C99.7149 18.2701 100.077 18.1651 100.465 18.1651C100.959 18.1651 101.329 18.2876 101.602 18.524C101.876 18.7604 102.017 19.1018 102.017 19.5833V23.3739L102.758 23.4789V23.5227H100.5V23.4702L101.064 23.3739H101.135V19.592C101.135 19.2156 101.056 18.9179 100.897 18.6991C100.729 18.4715 100.465 18.3577 100.138 18.3577C99.7943 18.3577 99.4591 18.489 99.1415 18.7341C98.8417 18.9705 98.5682 19.2681 98.3301 19.6183L98.3124 19.6445V23.3739L98.9475 23.4789V23.5314H96.6895V23.4089H96.5131V23.7065H99.1239V23.3388L98.4888 23.2338V19.6796H98.4006L98.4712 19.7321C98.7005 19.3994 98.9563 19.1193 99.2474 18.8917C99.5385 18.6641 99.8295 18.5503 100.138 18.5503C100.429 18.5503 100.623 18.6378 100.756 18.8216C100.888 18.9967 100.959 19.2594 100.959 19.6095V23.2338L100.394 23.3301H100.323V23.7153H102.934V23.3388L102.193 23.2338V19.592C102.193 19.0755 102.035 18.6728 101.717 18.4014C101.408 18.1301 100.985 17.9987 100.465 17.9987C100.041 17.9987 99.6355 18.1126 99.2739 18.3489C98.9122 18.5765 98.5947 18.8829 98.3301 19.2681L98.4006 19.3206H98.4888V18.095H96.5131V18.4715L97.254 18.5765V23.2338L96.5924 23.3301H96.5131V23.4176H96.6013L96.6101 23.4001ZM105.713 23.7153V23.6277C105.272 23.6277 104.928 23.5139 104.654 23.3038C104.39 23.085 104.257 22.7698 104.249 22.3233C104.249 21.693 104.504 21.2641 105.034 21.0015C105.58 20.7301 106.207 20.59 106.93 20.59H107.724V19.6971C107.724 19.3294 107.68 19.0405 107.592 18.8216C107.512 18.6028 107.371 18.4365 107.177 18.3489C106.992 18.2526 106.745 18.2176 106.454 18.2176C106.11 18.2176 105.845 18.2876 105.66 18.4365C105.475 18.5765 105.378 18.7779 105.386 19.023C105.386 19.2594 105.519 19.4432 105.748 19.5045L105.775 19.4169H105.686C105.686 19.5658 105.633 19.6971 105.51 19.8196C105.386 19.9422 105.254 19.9947 105.095 19.9947C104.91 19.9947 104.778 19.9509 104.681 19.8634C104.584 19.7759 104.531 19.6358 104.531 19.4257C104.531 19.0493 104.707 18.7604 105.104 18.524C105.492 18.2876 105.995 18.1651 106.595 18.1651C107.292 18.1651 107.794 18.3139 108.121 18.6028C108.447 18.8917 108.615 19.3119 108.624 19.9072V22.9099C108.624 23.0762 108.659 23.2163 108.738 23.3213C108.826 23.4176 108.959 23.4702 109.1 23.4614C109.241 23.4614 109.364 23.4176 109.453 23.3213C109.541 23.2163 109.576 23.085 109.576 22.9274H109.488V23.0149H109.708V22.9274H109.62C109.62 23.155 109.55 23.3126 109.409 23.4351C109.276 23.5577 109.082 23.619 108.809 23.619C108.5 23.619 108.244 23.5314 108.041 23.3651L107.988 23.4351L108.05 23.3651C107.856 23.1988 107.75 22.9361 107.741 22.5597V22.1833L107.574 22.5247C107.415 22.8661 107.168 23.1287 106.824 23.3301C106.489 23.5227 106.127 23.619 105.713 23.619V23.7941C106.154 23.7941 106.551 23.689 106.912 23.4789C107.283 23.2688 107.556 22.9712 107.733 22.6035L107.653 22.5685H107.565C107.565 22.9799 107.689 23.2951 107.936 23.5052C108.174 23.6978 108.474 23.7941 108.818 23.7941C109.117 23.7941 109.356 23.724 109.532 23.5577L109.47 23.4964L109.532 23.5665C109.717 23.4089 109.805 23.19 109.805 22.9186V22.8311H109.409V22.9186C109.409 23.0412 109.373 23.1375 109.32 23.1988L109.391 23.2513L109.329 23.19C109.276 23.2513 109.214 23.2776 109.109 23.2776C109.003 23.2776 108.932 23.2513 108.879 23.19L108.818 23.2513L108.888 23.1988C108.844 23.1375 108.809 23.0412 108.809 22.8924V19.8897C108.809 19.2681 108.624 18.7779 108.253 18.454C107.874 18.1301 107.327 17.9725 106.604 17.9725C105.977 17.9725 105.448 18.095 105.025 18.3489C104.593 18.6028 104.363 18.9617 104.372 19.3994C104.372 19.6358 104.434 19.8371 104.584 19.9685C104.725 20.091 104.901 20.1523 105.122 20.1523C105.325 20.1523 105.51 20.0735 105.66 19.9247C105.81 19.7759 105.889 19.6008 105.889 19.3994V19.3381L105.827 19.3206C105.66 19.2594 105.598 19.1806 105.589 19.0055C105.589 18.8129 105.66 18.6728 105.801 18.559C105.942 18.4452 106.163 18.3752 106.489 18.3752C106.771 18.3752 106.983 18.419 107.142 18.489C107.292 18.559 107.397 18.6728 107.468 18.8567C107.547 19.0318 107.592 19.3031 107.592 19.6621V20.3799H106.974C106.233 20.3799 105.572 20.52 104.998 20.8089L105.042 20.8877L105.007 20.8089C104.425 21.089 104.116 21.6055 104.125 22.2883C104.125 22.7698 104.275 23.1462 104.593 23.4089C104.901 23.654 105.289 23.7766 105.757 23.7766V23.689L105.713 23.7153ZM106.295 23.2513V23.3388C106.507 23.3388 106.709 23.2776 106.921 23.155C107.142 23.0324 107.327 22.8661 107.468 22.6473C107.618 22.4196 107.706 22.1395 107.733 21.8331V20.6425H106.939C106.348 20.6425 105.889 20.7738 105.58 21.054C105.281 21.3254 105.131 21.7106 105.131 22.192C105.131 22.586 105.228 22.8924 105.439 23.0762C105.642 23.2601 105.933 23.3388 106.304 23.3388V23.1638C105.96 23.1638 105.722 23.085 105.554 22.9449C105.395 22.8048 105.307 22.5685 105.307 22.192C105.307 21.7456 105.439 21.4217 105.704 21.1853C105.969 20.9489 106.383 20.8176 106.948 20.8176H107.565V21.8244C107.539 22.1045 107.459 22.3496 107.327 22.551L107.397 22.5947L107.327 22.5422C107.195 22.7436 107.027 22.8924 106.842 22.9974C106.657 23.1025 106.48 23.155 106.304 23.155V23.2425L106.295 23.2513ZM116.033 17.6748H115.944C115.944 17.9287 115.856 18.1301 115.662 18.3139C115.477 18.489 115.177 18.6115 114.736 18.6641L114.595 18.6816L114.674 18.8041C114.842 19.0493 114.93 19.3994 114.93 19.8459C114.93 20.3711 114.745 20.7738 114.374 21.0715C114.004 21.3691 113.536 21.5267 112.946 21.5267C112.707 21.5267 112.487 21.5092 112.284 21.4654H112.266C112.028 21.4829 111.843 21.5355 111.711 21.6405C111.578 21.7456 111.508 21.9031 111.508 22.0782C111.508 22.2796 111.596 22.4547 111.772 22.551C111.949 22.6473 112.205 22.691 112.549 22.691H113.731C114.295 22.691 114.692 22.8048 114.948 23.0149C115.204 23.225 115.336 23.584 115.336 24.1355C115.336 24.5119 115.239 24.8533 115.045 25.1685C114.86 25.4836 114.577 25.7288 114.216 25.9126C113.854 26.1052 113.413 26.1927 112.893 26.1927C112.108 26.1927 111.525 26.0702 111.173 25.8513C110.82 25.6237 110.652 25.3436 110.652 24.9759C110.652 24.757 110.732 24.5732 110.899 24.4069C111.067 24.2405 111.287 24.1617 111.587 24.1617C111.64 24.1617 111.772 24.1792 111.966 24.2055V24.118L111.914 24.0567C111.684 24.3018 111.561 24.5995 111.561 24.9321C111.561 25.256 111.675 25.5449 111.905 25.7813C112.143 26.0264 112.513 26.149 113.007 26.149C113.431 26.149 113.819 26.0702 114.154 25.8951C114.498 25.7375 114.763 25.5274 114.948 25.256C115.133 24.9934 115.23 24.7133 115.23 24.4244C115.23 24.1092 115.124 23.8641 114.904 23.7153C114.683 23.5752 114.33 23.5139 113.836 23.5139H112.549C112.063 23.5139 111.711 23.4176 111.481 23.2513C111.261 23.0762 111.146 22.8223 111.146 22.4547C111.146 22.2183 111.208 22.0169 111.34 21.8419C111.481 21.658 111.649 21.5442 111.852 21.5004L112.108 21.4392L111.869 21.3341C111.287 21.089 111.005 20.6075 111.005 19.8371C111.005 19.3031 111.19 18.9004 111.552 18.6028C111.922 18.3051 112.39 18.1476 112.954 18.1476C113.686 18.1476 114.198 18.2964 114.507 18.5853L114.542 18.6115H114.586C114.798 18.5678 114.957 18.4977 115.071 18.3927C115.186 18.2789 115.248 18.1476 115.248 18.0075C115.248 17.8762 115.212 17.7624 115.124 17.6923C115.045 17.6136 114.948 17.5698 114.842 17.5698V17.6573H114.93C114.93 17.526 114.974 17.421 115.071 17.3159C115.177 17.2109 115.292 17.1671 115.433 17.1671C115.592 17.1671 115.706 17.2109 115.803 17.2984C115.9 17.3859 115.944 17.4998 115.944 17.6573H116.121C116.121 17.4647 116.059 17.2984 115.927 17.1758C115.794 17.0533 115.627 16.992 115.433 16.992C115.248 16.992 115.08 17.062 114.948 17.1934C114.824 17.3159 114.754 17.4822 114.754 17.6573V17.7449H114.842L115.001 17.8149C115.045 17.8499 115.062 17.9024 115.062 17.9987C115.062 18.095 115.027 18.1738 114.939 18.2614C114.86 18.3402 114.727 18.3927 114.542 18.4277L114.56 18.5152L114.621 18.454C114.26 18.1213 113.704 17.9725 112.954 17.9725C112.355 17.9725 111.843 18.1388 111.437 18.4627C111.031 18.7954 110.82 19.2594 110.82 19.8371C110.82 20.6513 111.146 21.2203 111.79 21.4917L111.825 21.4129L111.808 21.3254C111.561 21.3866 111.358 21.5267 111.199 21.7368C111.049 21.9382 110.97 22.1833 110.97 22.4547C110.97 22.8486 111.102 23.1725 111.375 23.3826C111.649 23.584 112.046 23.6803 112.549 23.6803H113.836C114.313 23.6803 114.639 23.7415 114.807 23.8553C114.965 23.9691 115.054 24.1442 115.054 24.4244C115.054 24.6695 114.974 24.9146 114.807 25.151C114.639 25.3873 114.401 25.5799 114.083 25.7288C113.775 25.8863 113.413 25.9651 113.007 25.9651C112.54 25.9651 112.222 25.8513 112.037 25.6587C111.843 25.4486 111.746 25.2122 111.746 24.9321C111.746 24.6345 111.843 24.3894 112.046 24.1705L112.16 24.0479L111.993 24.0217C111.79 23.9954 111.667 23.9779 111.587 23.9779C111.252 23.9779 110.979 24.0742 110.776 24.2755C110.582 24.4681 110.476 24.7045 110.476 24.9671C110.476 25.3873 110.687 25.7375 111.076 25.9826C111.481 26.2365 112.081 26.3503 112.893 26.3503C113.431 26.3503 113.907 26.254 114.295 26.0439L114.251 25.9651L114.286 26.0439C114.683 25.8513 114.983 25.5799 115.195 25.2298C115.406 24.8883 115.512 24.5119 115.512 24.1005C115.512 23.5314 115.371 23.1025 115.054 22.8486C114.754 22.5947 114.313 22.4809 113.731 22.4809H112.549C112.222 22.4809 111.993 22.4372 111.861 22.3671C111.737 22.2971 111.684 22.2008 111.684 22.0432C111.684 21.9031 111.728 21.8068 111.816 21.7368C111.905 21.6668 112.063 21.6143 112.275 21.6055V21.518L112.249 21.6055C112.46 21.6493 112.69 21.6668 112.946 21.6668C113.563 21.6668 114.075 21.5004 114.48 21.1765C114.895 20.8439 115.107 20.3799 115.107 19.8196C115.107 19.3469 115.009 18.9617 114.815 18.6816L114.745 18.7341V18.8216C115.212 18.7604 115.556 18.6378 115.777 18.419C115.997 18.2088 116.112 17.9462 116.112 17.6486H116.024L116.033 17.6748ZM114.03 19.5833H114.119C114.119 19.1456 114.022 18.7954 113.828 18.5415C113.634 18.2876 113.334 18.1563 112.954 18.1563C112.584 18.1563 112.293 18.2789 112.099 18.524C111.905 18.7691 111.816 19.1193 111.816 19.5745V20.091C111.816 20.5112 111.905 20.8614 112.09 21.1153C112.284 21.3779 112.584 21.5092 112.954 21.5092C113.334 21.5092 113.634 21.3779 113.828 21.1153C114.03 20.8614 114.119 20.5112 114.119 20.0823V19.5658H113.942V20.0823C113.942 20.485 113.854 20.7914 113.686 21.0102C113.528 21.2203 113.298 21.3341 112.954 21.3341C112.619 21.3341 112.39 21.2291 112.231 21.0102C112.072 20.7914 111.993 20.485 111.993 20.0823V19.5658C111.993 19.128 112.081 18.8216 112.24 18.6203C112.399 18.419 112.628 18.3227 112.954 18.3227C113.298 18.3227 113.528 18.4277 113.686 18.6378C113.854 18.8479 113.942 19.1543 113.942 19.5745H114.03V19.5833ZM119.764 23.7153V23.6277C119.252 23.6277 118.793 23.5139 118.388 23.2951C117.982 23.0675 117.656 22.7436 117.417 22.3321C117.179 21.9207 117.056 21.4392 117.056 20.8964C117.056 20.3449 117.17 19.8722 117.409 19.4695C117.647 19.058 117.964 18.7341 118.361 18.5152C118.767 18.2876 119.208 18.1738 119.702 18.1738C120.134 18.1738 120.513 18.2701 120.857 18.454C121.193 18.6466 121.457 18.9004 121.651 19.2419C121.836 19.5745 121.942 19.9509 121.942 20.3887H122.031V20.3011H118.044V21.4304C118.044 22.0607 118.185 22.5772 118.476 22.9799C118.776 23.3826 119.217 23.584 119.764 23.584C120.266 23.584 120.716 23.4439 121.104 23.155C121.492 22.8749 121.739 22.4984 121.828 22.0432L121.739 22.0257V22.1132H121.986V22.0257L121.898 22.0082C121.801 22.5072 121.563 22.9011 121.184 23.1988C120.796 23.4964 120.328 23.6452 119.764 23.6452V23.8203C120.355 23.8203 120.866 23.6627 121.29 23.3388C121.704 23.0149 121.969 22.586 122.075 22.0432L122.092 21.9382H121.669L121.651 22.0082C121.572 22.4196 121.36 22.7523 120.999 23.0149C120.637 23.2776 120.231 23.4089 119.764 23.4089C119.252 23.4089 118.882 23.2338 118.617 22.8749C118.352 22.5072 118.22 22.0257 118.22 21.4217V20.4674H122.119V20.3799C122.119 19.9159 122.004 19.5045 121.801 19.1543C121.598 18.7954 121.307 18.5065 120.946 18.3051C120.575 18.1038 120.161 17.9987 119.711 17.9987C119.19 17.9987 118.714 18.1213 118.282 18.3664C117.858 18.6028 117.514 18.9442 117.268 19.3819C117.021 19.8196 116.897 20.3274 116.897 20.8964C116.897 21.4654 117.021 21.9819 117.276 22.4196C117.532 22.8574 117.876 23.2075 118.317 23.4526C118.758 23.689 119.243 23.8116 119.781 23.8116V23.724L119.764 23.7153ZM120.866 20.1085H120.954C120.954 19.487 120.857 19.023 120.655 18.7078C120.452 18.3839 120.117 18.2088 119.693 18.2176C119.199 18.2176 118.802 18.3927 118.52 18.7429C118.247 19.093 118.097 19.5482 118.053 20.1085V20.2048H120.946V20.1173H120.857V20.0297H118.141V20.1173H118.229C118.264 19.592 118.405 19.1718 118.652 18.8567C118.899 18.5503 119.234 18.4014 119.684 18.3927C120.064 18.3927 120.319 18.524 120.496 18.8041C120.672 19.0755 120.769 19.5132 120.769 20.1085H120.866ZM123.371 23.4001V23.4877L124.121 23.3826H124.2V18.4102L123.459 18.3051V18.2614H125.082V19.3994L125.241 19.1981C125.488 18.8742 125.77 18.6291 126.07 18.4452C126.379 18.2614 126.714 18.1738 127.076 18.1738C127.49 18.1738 127.826 18.2614 128.073 18.4452C128.328 18.6115 128.487 18.8654 128.558 19.2156L128.593 19.4169L128.716 19.2506C128.963 18.9179 129.246 18.6553 129.563 18.4627C129.872 18.2701 130.216 18.1738 130.586 18.1738C131.071 18.1738 131.433 18.2964 131.689 18.5328C131.945 18.7604 132.086 19.1018 132.086 19.592V23.3826L132.827 23.4877V23.5314H130.569V23.4789L131.133 23.3826H131.204V19.6008C131.204 19.2156 131.133 18.9179 130.983 18.6991C130.833 18.4715 130.578 18.3664 130.251 18.3664C129.942 18.3664 129.643 18.4715 129.351 18.6728C129.078 18.8742 128.822 19.1368 128.602 19.452L128.584 19.4782V23.3739L129.219 23.4789V23.5314H127.058V23.4789L127.623 23.3826H127.693V19.6008C127.693 19.2156 127.623 18.9179 127.473 18.6991C127.323 18.4715 127.067 18.3664 126.741 18.3664C126.432 18.3664 126.132 18.4715 125.841 18.6728C125.568 18.8742 125.312 19.1368 125.091 19.452L125.074 19.4782V23.3739L125.709 23.4789V23.5314H123.451V23.4089H123.274V23.7065H125.885V23.3388L125.25 23.2338V19.5132H125.162L125.232 19.5658C125.444 19.2681 125.682 19.023 125.947 18.8304C126.211 18.6466 126.476 18.5503 126.741 18.5503C127.023 18.5503 127.208 18.6378 127.323 18.8041C127.446 18.9792 127.508 19.2418 127.508 19.6095V23.2338L126.944 23.3301H126.873V23.7153H129.387V23.3476L128.752 23.2425V19.522H128.663L128.734 19.5745C128.946 19.2769 129.184 19.0317 129.449 18.8392C129.713 18.6553 129.978 18.559 130.242 18.559C130.525 18.559 130.71 18.6466 130.825 18.8129C130.948 18.988 131.01 19.2506 131.01 19.6183V23.2425L130.445 23.3388H130.375V23.724H132.986V23.3476L132.245 23.2425V19.6008C132.245 19.0843 132.095 18.6728 131.795 18.4102L131.733 18.4802L131.795 18.419C131.495 18.1476 131.089 18.0163 130.569 18.0163C130.163 18.0163 129.793 18.1213 129.449 18.3314L129.493 18.4014L129.449 18.3227C129.113 18.524 128.813 18.8041 128.558 19.1543L128.628 19.2068L128.716 19.1893C128.646 18.8041 128.461 18.4977 128.161 18.3051C127.87 18.1038 127.508 18.0075 127.058 18.0075C126.67 18.0075 126.3 18.1038 125.964 18.3051C125.638 18.4977 125.338 18.7691 125.082 19.1018L125.153 19.1543H125.241V18.1038H123.265V18.4802L124.006 18.5853V23.2425L123.345 23.3388H123.265V23.4264H123.354L123.371 23.4001ZM136.981 23.7153V23.6277C136.47 23.6277 136.011 23.5139 135.605 23.2951C135.199 23.0675 134.873 22.7436 134.635 22.3321C134.397 21.9207 134.273 21.4392 134.273 20.8964C134.273 20.3449 134.388 19.8722 134.626 19.4695C134.864 19.058 135.182 18.7341 135.579 18.5152C135.984 18.2876 136.425 18.1738 136.919 18.1738C137.352 18.1738 137.731 18.2701 138.075 18.454C138.41 18.6466 138.675 18.9004 138.869 19.2419C139.054 19.5745 139.16 19.9509 139.16 20.3887H139.248V20.3011H135.261V21.4304C135.261 22.0607 135.402 22.5772 135.693 22.9799C135.993 23.3826 136.434 23.584 136.981 23.584C137.484 23.584 137.934 23.4439 138.322 23.155C138.71 22.8749 138.957 22.4984 139.045 22.0432L138.957 22.0257V22.1132H139.204V22.0257L139.116 22.0082C139.019 22.5072 138.781 22.9011 138.401 23.1988C138.013 23.4964 137.546 23.6452 136.981 23.6452V23.8203C137.572 23.8203 138.084 23.6627 138.507 23.3388C138.922 23.0149 139.186 22.586 139.292 22.0432L139.31 21.9382H138.886L138.869 22.0082C138.789 22.4196 138.578 22.7523 138.216 23.0149C137.854 23.2776 137.449 23.4089 136.981 23.4089C136.47 23.4089 136.099 23.2338 135.835 22.8749C135.57 22.5072 135.438 22.0257 135.438 21.4217V20.4674H139.336V20.3799C139.336 19.9159 139.222 19.5045 139.019 19.1543C138.816 18.7954 138.525 18.5065 138.163 18.3051C137.793 18.1038 137.378 17.9987 136.928 17.9987C136.408 17.9987 135.932 18.1213 135.499 18.3664C135.076 18.6028 134.732 18.9442 134.485 19.3819C134.238 19.8196 134.115 20.3274 134.115 20.8964C134.115 21.4654 134.238 21.9819 134.494 22.4196C134.75 22.8574 135.094 23.2075 135.535 23.4526C135.976 23.689 136.461 23.8116 136.999 23.8116V23.724L136.981 23.7153ZM138.084 20.1085H138.172C138.172 19.487 138.075 19.023 137.872 18.7078C137.669 18.3839 137.334 18.2088 136.911 18.2176C136.417 18.2176 136.02 18.3927 135.737 18.7429C135.464 19.093 135.314 19.5482 135.27 20.1085V20.2048H138.163V20.1173H138.075V20.0297H135.358V20.1173H135.446C135.482 19.592 135.623 19.1718 135.87 18.8567C136.117 18.5503 136.452 18.4014 136.902 18.3927C137.281 18.3927 137.537 18.524 137.713 18.8041C137.89 19.0755 137.987 19.5132 137.987 20.1085H138.084ZM140.589 23.4001V23.4877L141.338 23.3826H141.418V18.4102L140.677 18.3051V18.2614H142.3V19.592L142.459 19.3557C142.714 18.988 143.014 18.6991 143.35 18.489C143.694 18.2701 144.055 18.1651 144.443 18.1651C144.937 18.1651 145.308 18.2876 145.581 18.524C145.855 18.7604 145.996 19.1018 145.996 19.5833V23.3739L146.737 23.4789V23.5227H144.479V23.4702L145.043 23.3739H145.114V19.592C145.114 19.2156 145.034 18.9179 144.875 18.6991C144.708 18.4715 144.443 18.3577 144.117 18.3577C143.773 18.3577 143.438 18.489 143.12 18.7341C142.82 18.9705 142.547 19.2681 142.309 19.6183L142.291 19.6445V23.3739L142.926 23.4789V23.5314H140.668V23.4089H140.492V23.7065H143.103V23.3388L142.467 23.2338V19.6796H142.379L142.45 19.7321C142.679 19.3994 142.935 19.1193 143.226 18.8917C143.517 18.6641 143.808 18.5503 144.117 18.5503C144.408 18.5503 144.602 18.6378 144.734 18.8216C144.867 18.9967 144.937 19.2594 144.937 19.6095V23.2338L144.373 23.3301H144.302V23.7153H146.913V23.3388L146.172 23.2338V19.592C146.172 19.0755 146.013 18.6728 145.696 18.4014C145.387 18.1301 144.964 17.9987 144.443 17.9987C144.02 17.9987 143.614 18.1126 143.252 18.3489C142.891 18.5765 142.573 18.8829 142.309 19.2681L142.379 19.3206H142.467V18.095H140.492V18.4715L141.233 18.5765V23.2338L140.571 23.3301H140.492V23.4176H140.58L140.589 23.4001ZM150.132 23.7153V23.6277C149.683 23.6277 149.33 23.5139 149.065 23.3038C148.818 23.0937 148.686 22.7611 148.686 22.2708V18.4102L147.936 18.3051V18.2614H148.686V17.3684L149.568 17.1496V18.2614H150.944V18.3051L149.568 18.4102V22.2533C149.568 22.6385 149.638 22.9274 149.788 23.1375C149.938 23.3476 150.177 23.4526 150.468 23.4526C150.591 23.4526 150.706 23.4351 150.812 23.3914C150.917 23.3563 151.006 23.3213 151.076 23.2776L151.129 23.2425L151.217 23.3476L151.288 23.2951L151.226 23.2338C150.926 23.4964 150.565 23.6277 150.141 23.6277V23.8028C150.609 23.8028 151.014 23.654 151.341 23.3563L151.403 23.3038L151.208 23.0675L151.156 23.0062L150.97 23.12C150.926 23.1462 150.847 23.1813 150.75 23.2163C150.662 23.2513 150.565 23.2601 150.459 23.2601C150.212 23.2601 150.044 23.1813 149.93 23.0149C149.815 22.8486 149.744 22.5947 149.744 22.227V18.5503L151.12 18.4452V18.0688H149.744V16.9132L148.509 17.2196V18.0688H147.76V18.4452L148.509 18.5503V22.2533C148.509 22.7698 148.651 23.1725 148.95 23.4264C149.25 23.6715 149.647 23.7941 150.132 23.7941V23.7065V23.7153Z" fill="url(#paint18_linear_892_5670)"/>
<defs>
<linearGradient id="paint0_linear_892_5670" x1="11.0466" y1="2.23715" x2="11.0466" y2="24.0255" gradientUnits="userSpaceOnUse">
<stop stop-color="#B4BBC7"/>
<stop offset="1" stop-color="#E7E9ED"/>
</linearGradient>
<linearGradient id="paint1_linear_892_5670" x1="117.102" y1="7.21877" x2="125.562" y2="7.21877" gradientUnits="userSpaceOnUse">
<stop stop-color="#B4BBC7"/>
<stop offset="1" stop-color="#E7E9ED"/>
</linearGradient>
<linearGradient id="paint2_linear_892_5670" x1="165.065" y1="7.18071" x2="172.086" y2="7.18071" gradientUnits="userSpaceOnUse">
<stop stop-color="#B4BBC7"/>
<stop offset="1" stop-color="#E7E9ED"/>
</linearGradient>
<linearGradient id="paint3_linear_892_5670" x1="54.9186" y1="7.16839" x2="63.8848" y2="7.16839" gradientUnits="userSpaceOnUse">
<stop stop-color="#B4BBC7"/>
<stop offset="1" stop-color="#E7E9ED"/>
</linearGradient>
<linearGradient id="paint4_linear_892_5670" x1="79.6199" y1="7.16839" x2="88.5862" y2="7.16839" gradientUnits="userSpaceOnUse">
<stop stop-color="#B4BBC7"/>
<stop offset="1" stop-color="#E7E9ED"/>
</linearGradient>
<linearGradient id="paint5_linear_892_5670" x1="45.4986" y1="7.28114" x2="53.4293" y2="7.28114" gradientUnits="userSpaceOnUse">
<stop stop-color="#B4BBC7"/>
<stop offset="1" stop-color="#E7E9ED"/>
</linearGradient>
<linearGradient id="paint6_linear_892_5670" x1="65.602" y1="7.09333" x2="73.5327" y2="7.09333" gradientUnits="userSpaceOnUse">
<stop stop-color="#B4BBC7"/>
<stop offset="1" stop-color="#E7E9ED"/>
</linearGradient>
<linearGradient id="paint7_linear_892_5670" x1="74.7706" y1="6.1154" x2="78.8875" y2="6.1154" gradientUnits="userSpaceOnUse">
<stop stop-color="#B4BBC7"/>
<stop offset="1" stop-color="#E7E9ED"/>
</linearGradient>
<linearGradient id="paint8_linear_892_5670" x1="146.02" y1="6.11548" x2="150.138" y2="6.11548" gradientUnits="userSpaceOnUse">
<stop stop-color="#B4BBC7"/>
<stop offset="1" stop-color="#E7E9ED"/>
</linearGradient>
<linearGradient id="paint9_linear_892_5670" x1="35.3698" y1="6.11557" x2="45.4221" y2="6.11557" gradientUnits="userSpaceOnUse">
<stop stop-color="#B4BBC7"/>
<stop offset="1" stop-color="#E7E9ED"/>
</linearGradient>
<linearGradient id="paint10_linear_892_5670" x1="136.903" y1="7.09295" x2="140.742" y2="7.09295" gradientUnits="userSpaceOnUse">
<stop stop-color="#B4BBC7"/>
<stop offset="1" stop-color="#E7E9ED"/>
</linearGradient>
<linearGradient id="paint11_linear_892_5670" x1="142.535" y1="7.19308" x2="144.354" y2="7.19308" gradientUnits="userSpaceOnUse">
<stop stop-color="#B4BBC7"/>
<stop offset="1" stop-color="#E7E9ED"/>
</linearGradient>
<linearGradient id="paint12_linear_892_5670" x1="151.906" y1="7.19325" x2="153.724" y2="7.19325" gradientUnits="userSpaceOnUse">
<stop stop-color="#B4BBC7"/>
<stop offset="1" stop-color="#E7E9ED"/>
</linearGradient>
<linearGradient id="paint13_linear_892_5670" x1="127.154" y1="7.28132" x2="135.085" y2="7.28132" gradientUnits="userSpaceOnUse">
<stop stop-color="#B4BBC7"/>
<stop offset="1" stop-color="#E7E9ED"/>
</linearGradient>
<linearGradient id="paint14_linear_892_5670" x1="96.9214" y1="6.10308" x2="105.837" y2="6.10308" gradientUnits="userSpaceOnUse">
<stop stop-color="#B4BBC7"/>
<stop offset="1" stop-color="#E7E9ED"/>
</linearGradient>
<linearGradient id="paint15_linear_892_5670" x1="106.872" y1="7.15588" x2="115.965" y2="7.15588" gradientUnits="userSpaceOnUse">
<stop stop-color="#B4BBC7"/>
<stop offset="1" stop-color="#E7E9ED"/>
</linearGradient>
<linearGradient id="paint16_linear_892_5670" x1="155.062" y1="7.15615" x2="164.155" y2="7.15615" gradientUnits="userSpaceOnUse">
<stop stop-color="#B4BBC7"/>
<stop offset="1" stop-color="#E7E9ED"/>
</linearGradient>
<linearGradient id="paint17_linear_892_5670" x1="35.3687" y1="20.7484" x2="150.506" y2="20.7484" gradientUnits="userSpaceOnUse">
<stop stop-color="#B4BBC7"/>
<stop offset="1" stop-color="#E7E9ED"/>
</linearGradient>
<linearGradient id="paint18_linear_892_5670" x1="35.0582" y1="20.7424" x2="151.395" y2="20.7424" gradientUnits="userSpaceOnUse">
<stop stop-color="#B4BBC7"/>
<stop offset="1" stop-color="#E7E9ED"/>
</linearGradient>
</defs>
</svg>
